<?xml version="1.0" encoding="utf-8"?>
<!-- Generator: Adobe Illustrator 18.1.1, SVG Export Plug-In . SVG Version: 6.00 Build 0)  -->
<svg version="1.1" id="Layer_1" xmlns="http://www.w3.org/2000/svg" xmlns:xlink="http://www.w3.org/1999/xlink" x="0px" y="0px"
	 viewBox="0 0 204.75 236.474" enable-background="new 0 0 204.75 236.474" xml:space="preserve">
<g>
	<polygon fill="#FFCE00" points="202.249,175.939 102.401,233.587 2.5,175.939 2.5,60.589 102.401,2.887 202.249,60.589 	"/>
	<circle fill="none" cx="102.375" cy="118.237" r="0.269"/>
	<path fill="#1D1D1B" d="M79.821,49.701c0-2.045-1.561-3.66-3.768-3.66c-2.207,0-3.822,1.669-3.822,3.66
		c0,2.045,1.561,3.66,3.768,3.66C78.206,53.361,79.821,51.693,79.821,49.701z M73.9,49.701c0-1.238,0.861-2.207,2.153-2.207
		c1.238,0,2.153,1.023,2.153,2.261c0,1.238-0.861,2.207-2.153,2.207C74.762,51.908,73.9,50.939,73.9,49.701z M83.966,53.254
		c2.261,0,3.768-1.561,3.768-3.553s-1.561-3.552-3.768-3.552h-1.992c-0.431,0-0.807,0.323-0.807,0.807v5.49
		c0.054,0.484,0.377,0.807,0.807,0.807H83.966z M82.782,47.548h1.184c1.292,0,2.153,0.861,2.153,2.153
		c0,1.238-0.861,2.153-2.153,2.153h-1.184V47.548z M66.042,52.554v-3.822l3.122,4.091c0.215,0.269,0.431,0.484,0.807,0.484h0.054
		c0.431,0,0.807-0.323,0.807-0.807v-5.652c0-0.431-0.323-0.754-0.754-0.754c-0.431,0-0.754,0.323-0.754,0.754v3.66l-3.014-3.983
		c-0.215-0.269-0.431-0.484-0.807-0.484h-0.161c-0.431,0-0.807,0.323-0.807,0.807V52.5c0,0.484,0.323,0.807,0.754,0.807
		S66.042,52.985,66.042,52.554z M98.93,49.001c-1.238-0.323-1.561-0.484-1.561-0.915c0-0.323,0.323-0.646,0.915-0.646
		c0.484,0,0.969,0.161,1.507,0.484c0.108,0.054,0.269,0.108,0.377,0.108c0.431,0,0.754-0.323,0.754-0.7
		c0-0.323-0.161-0.538-0.323-0.646c-0.646-0.431-1.399-0.646-2.261-0.646c-1.453,0-2.476,0.861-2.476,2.153
		c0,1.399,0.915,1.83,2.368,2.153c1.184,0.323,1.453,0.484,1.453,0.915s-0.377,0.646-1.023,0.646c-0.7,0-1.292-0.269-1.83-0.646
		c-0.108-0.054-0.269-0.161-0.431-0.161c-0.431,0-0.754,0.323-0.754,0.7c-0.108,0.377,0.054,0.592,0.215,0.7
		c0.807,0.592,1.722,0.861,2.691,0.861c1.561,0,2.638-0.807,2.638-2.207C101.19,49.917,100.383,49.378,98.93,49.001z M129.88,53.361
		c2.207,0,3.822-1.669,3.822-3.66c0-2.045-1.561-3.66-3.768-3.66s-3.822,1.669-3.822,3.66
		C126.112,51.747,127.673,53.361,129.88,53.361z M129.88,47.494c1.238,0,2.153,1.023,2.153,2.261c0,1.238-0.861,2.207-2.153,2.207
		c-1.238-0.054-2.153-1.023-2.153-2.261C127.727,48.463,128.588,47.494,129.88,47.494z M111.633,52.5v-2.153h2.907V52.5
		c0,0.431,0.323,0.807,0.807,0.807c0.431,0,0.807-0.323,0.807-0.807v-5.652c0-0.431-0.323-0.807-0.807-0.807
		c-0.431,0-0.807,0.323-0.807,0.807v2.099h-2.907v-2.099c0-0.431-0.323-0.807-0.807-0.807c-0.431,0-0.807,0.323-0.807,0.807V52.5
		c0,0.484,0.323,0.807,0.807,0.807C111.256,53.308,111.633,52.985,111.633,52.5z M124.982,49.701c0-2.045-1.561-3.66-3.768-3.66
		s-3.822,1.669-3.822,3.66c0.054,2.045,1.615,3.66,3.822,3.66S124.982,51.693,124.982,49.701z M119.061,49.701
		c0-1.238,0.861-2.207,2.153-2.207c1.238,0,2.153,1.023,2.153,2.261c0,1.238-0.861,2.207-2.153,2.207
		C119.976,51.908,119.061,50.939,119.061,49.701z M135.801,46.095c-0.431,0-0.807,0.323-0.807,0.807v5.544
		c0.054,0.484,0.431,0.807,0.861,0.807h3.66c0.377,0,0.7-0.323,0.7-0.7c0-0.377-0.323-0.7-0.7-0.7h-2.907v-4.952
		C136.608,46.472,136.285,46.095,135.801,46.095z M107.865,51.208c-0.161,0-0.323,0.054-0.484,0.161
		c-0.431,0.377-0.861,0.538-1.561,0.538c-1.238,0-2.045-1.023-2.045-2.261c0-1.238,0.861-2.207,2.045-2.207
		c0.538,0,1.023,0.161,1.453,0.484c0.108,0.054,0.269,0.161,0.484,0.161c0.431,0,0.754-0.323,0.754-0.754
		c0-0.269-0.161-0.484-0.323-0.646c-0.592-0.431-1.292-0.7-2.368-0.7c-2.207,0-3.714,1.669-3.714,3.66
		c0.108,2.099,1.669,3.714,3.714,3.714c1.13,0,1.884-0.323,2.53-0.915c0.161-0.108,0.269-0.323,0.269-0.538
		C108.618,51.531,108.295,51.208,107.865,51.208z M93.924,51.854h-3.23v-1.507h2.691c0.377,0,0.7-0.323,0.7-0.7
		c0-0.377-0.323-0.7-0.7-0.7h-2.691v-1.453h3.176c0.377,0,0.7-0.323,0.7-0.7s-0.323-0.7-0.7-0.7h-3.929
		c-0.431,0-0.807,0.323-0.807,0.807v5.544c0.054,0.484,0.377,0.807,0.807,0.807h3.983c0.377,0,0.7-0.323,0.7-0.7
		C94.624,52.177,94.301,51.854,93.924,51.854z M102.509,188.285c0.377,0,0.646-0.269,0.646-0.646v-4.791
		c0-0.377-0.269-0.646-0.646-0.646s-0.646,0.269-0.646,0.646v4.791C101.863,188.016,102.132,188.285,102.509,188.285z
		 M139.821,113.878c0.157,0.431,0.564,0.699,0.998,0.699c0.121,0,0.243-0.021,0.363-0.064l24.477-8.909
		c0.551-0.201,0.835-0.81,0.635-1.361c-0.201-0.551-0.81-0.834-1.361-0.635l-24.477,8.909
		C139.905,112.718,139.621,113.327,139.821,113.878z M141.619,120.588c0.091,0.515,0.539,0.877,1.044,0.877
		c0.061,0,0.123-0.005,0.186-0.016l25.652-4.523c0.578-0.102,0.963-0.652,0.861-1.23c-0.102-0.577-0.652-0.964-1.23-0.861
		l-25.652,4.523C141.903,119.459,141.517,120.01,141.619,120.588z M132.901,101.892c0.21,0.25,0.511,0.379,0.814,0.379
		c0.241,0,0.483-0.081,0.682-0.248l19.954-16.743c0.449-0.377,0.508-1.046,0.131-1.496c-0.377-0.449-1.047-0.508-1.496-0.131
		l-19.954,16.743C132.583,100.773,132.524,101.443,132.901,101.892z M127.99,96.98c0.199,0.167,0.441,0.248,0.682,0.248
		c0.303,0,0.604-0.129,0.814-0.379l16.743-19.954c0.377-0.45,0.318-1.119-0.131-1.496c-0.449-0.377-1.119-0.318-1.496,0.131
		l-16.743,19.954C127.482,95.934,127.541,96.604,127.99,96.98z M102.07,17.958c0,0,0,0-0.054,0h-0.269
		c-0.054,0-0.108,0.054-0.161,0.054L61.377,41.211c-0.484,0.269-0.646,0.861-0.377,1.346c0.269,0.484,0.915,0.646,1.346,0.377
		l35.741-20.615L82.907,41.696c-0.323,0.431-0.269,1.077,0.161,1.399c0.431,0.323,1.077,0.269,1.399-0.161l16.578-21.154v20.669
		c0,0.538,0.431,1.023,1.023,1.023s1.023-0.431,1.023-1.023V21.78l16.578,21.154c0.215,0.269,0.484,0.377,0.807,0.377
		c0.215,0,0.431-0.054,0.592-0.215c0.431-0.323,0.484-0.969,0.161-1.399l-15.179-19.377l36.387,20.992
		c0.161,0.108,0.323,0.108,0.484,0.108c0.323,0,0.7-0.161,0.861-0.484c0.215-0.431,0.054-1.077-0.431-1.346L102.5,18.012
		c-0.054-0.054-0.108-0.054-0.161-0.054H102.07z M90.563,60.52c-0.578,0.102-0.963,0.652-0.861,1.23l2.691,15.259
		c0.091,0.515,0.539,0.877,1.044,0.877c0.061,0,0.123-0.005,0.186-0.016c0.578-0.102,0.963-0.652,0.861-1.23l-2.691-15.259
		C91.691,60.803,91.143,60.417,90.563,60.52z M146.377,193.217c0.684,0,1.238-0.554,1.238-1.238c0-0.684-0.554-1.238-1.238-1.238
		c-0.684,0-1.238,0.554-1.238,1.238C145.139,192.663,145.694,193.217,146.377,193.217z M136.385,68.599
		c-0.508-0.294-1.158-0.119-1.45,0.389l-13.024,22.558c-0.293,0.508-0.119,1.157,0.389,1.45c0.167,0.097,0.35,0.142,0.53,0.142
		c0.367,0,0.724-0.19,0.921-0.531l13.024-22.558C137.067,69.542,136.893,68.892,136.385,68.599z M136.886,107.582
		c0.197,0.341,0.553,0.531,0.92,0.531c0.18,0,0.363-0.046,0.53-0.142l22.558-13.024c0.508-0.293,0.682-0.943,0.389-1.45
		s-0.943-0.683-1.45-0.389l-22.558,13.024C136.766,106.425,136.592,107.075,136.886,107.582z M22.905,132.887
		c-0.313,0-0.566,0.253-0.566,0.566v23.891c0,0.313,0.254,0.566,0.566,0.566c0.313,0,0.566-0.253,0.566-0.566v-23.891
		C23.471,133.14,23.218,132.887,22.905,132.887z M35.452,132.745c-0.391,0-0.708,0.317-0.708,0.708v23.891
		c0,0.391,0.317,0.708,0.708,0.708c0.391,0,0.708-0.317,0.708-0.708v-23.891C36.16,133.062,35.843,132.745,35.452,132.745z
		 M29.179,132.816c-0.352,0-0.637,0.285-0.637,0.637v23.891c0,0.352,0.285,0.637,0.637,0.637c0.352,0,0.637-0.285,0.637-0.637
		v-23.891C29.816,133.101,29.53,132.816,29.179,132.816z M16.632,132.957c-0.274,0-0.495,0.222-0.495,0.496v23.891
		c0,0.274,0.222,0.496,0.495,0.496s0.495-0.222,0.495-0.496v-23.891C17.127,133.179,16.906,132.957,16.632,132.957z M102.402,0
		L0,59.146v118.236l102.402,59.092l102.348-59.092V59.146L102.402,0z M5,174.495v-40.854c0.772-2.915,3.424-5.072,6.578-5.072
		h55.307c0.434,0,0.825-0.264,0.986-0.667l3.641-9.095l3.75,2.963c0.313,0.247,0.738,0.299,1.1,0.132
		c0.362-0.166,0.601-0.521,0.619-0.919c0.328-7.495,6.465-13.365,13.971-13.365h1.726v9.779l-2.104,1.45
		c-0.287,0.198-0.459,0.525-0.459,0.874v17.129c0,0.347,0.169,0.672,0.453,0.87l2.11,1.476v36.513H7.105L5,174.495z
		 M106.692,100.964h-8.635c-0.586,0-1.062,0.475-1.062,1.062l0,12.395l-2.194,1.512V83.957c1.222-0.214,2.348-0.796,3.244-1.692
		c0.896-0.896,1.478-2.021,1.692-3.244h5.276c0.214,1.222,0.796,2.348,1.692,3.244c0.896,0.896,2.021,1.478,3.243,1.692v31.976
		l-2.194-1.512v-12.395C107.754,101.439,107.279,100.964,106.692,100.964z M105.631,114.129h-6.512v-11.042h6.512L105.631,114.129z
		 M98.079,116.253h8.591l3.745,2.581c0.001,0.001,0.002,0.002,0.003,0.002l2.093,1.443v16.018l-5.791,4.051
		c-0.099,0.069-0.178,0.158-0.247,0.254h-3.044v-5.946h4.973l2.056-1.986c0.422-0.407,0.433-1.079,0.026-1.501
		c-0.407-0.423-1.079-0.434-1.501-0.026l-1.439,1.39h-10.34l-1.439-1.39c-0.422-0.408-1.094-0.396-1.501,0.026
		c-0.407,0.422-0.396,1.094,0.026,1.501l2.056,1.986h4.973v5.946h-3.044c-0.069-0.096-0.148-0.184-0.247-0.254l-5.791-4.051v-16.018
		l2.094-1.443c0.001-0.001,0.002-0.001,0.003-0.002L98.079,116.253z M109.948,140.682v35.028h-1.557v-33.938L109.948,140.682z
		 M103.967,161.235v-3.183h2.3v17.658h-7.786v-17.658h2.301v3.183H103.967z M98.481,155.928v-0.851h7.786v0.851H98.481z
		 M98.481,152.953v-10.228h7.786v10.228H98.481z M96.358,141.771v33.938h-1.557v-35.028L96.358,141.771z M102.401,230.7
		l-91.617-52.867h183.184L102.401,230.7z M199.75,174.495l-2.103,1.214h-85.575v-36.513l2.11-1.476
		c0.284-0.199,0.453-0.523,0.453-0.87v-17.129c0-0.349-0.172-0.676-0.459-0.874l-2.104-1.45v-9.779h1.726
		c7.507,0,13.644,5.871,13.972,13.365c0.017,0.398,0.256,0.753,0.619,0.919c0.362,0.166,0.788,0.114,1.1-0.132l3.75-2.963
		l3.641,9.095c0.161,0.403,0.552,0.667,0.986,0.667h55.307c3.154,0,5.807,2.159,6.578,5.074V174.495z M199.75,129.355
		c-1.635-1.783-3.974-2.91-6.578-2.91h-54.589l-3.902-9.748c-0.124-0.311-0.388-0.545-0.712-0.632
		c-0.324-0.086-0.669-0.015-0.932,0.193l-3.354,2.651c-1.281-7.665-7.912-13.415-15.885-13.415h-1.726V82.987
		c0-0.586-0.475-1.062-1.062-1.062c-1.059,0-2.055-0.412-2.804-1.161s-1.161-1.745-1.161-2.804c0-0.586-0.475-1.062-1.062-1.062
		h-2.546v-19.96c0-0.586-0.475-1.062-1.062-1.062c-0.586,0-1.062,0.475-1.062,1.062v19.96h-2.547c-0.586,0-1.062,0.475-1.062,1.062
		c0,1.059-0.412,2.055-1.161,2.804c-0.749,0.749-1.745,1.162-2.804,1.162c-0.586,0-1.062,0.475-1.062,1.062v22.507h-1.726
		c-7.973,0-14.605,5.75-15.885,13.415l-3.354-2.651c-0.263-0.207-0.608-0.278-0.932-0.193c-0.323,0.087-0.587,0.321-0.712,0.632
		l-3.902,9.748H11.578c-2.604,0-4.943,1.126-6.578,2.909V62.032l97.401-56.257l97.349,56.257V129.355z M10.358,133.028
		c-0.235,0-0.425,0.19-0.425,0.425v23.891c0,0.235,0.19,0.425,0.425,0.425c0.234,0,0.425-0.19,0.425-0.425v-23.891
		C10.783,133.218,10.593,133.028,10.358,133.028z M60.546,132.462c-0.547,0-0.991,0.443-0.991,0.991v23.891
		c0,0.547,0.444,0.991,0.991,0.991s0.991-0.443,0.991-0.991v-23.891C61.537,132.905,61.093,132.462,60.546,132.462z M41.725,132.674
		c-0.43,0-0.779,0.348-0.779,0.778v23.891c0,0.43,0.349,0.778,0.779,0.778c0.43,0,0.779-0.348,0.779-0.778v-23.891
		C42.504,133.023,42.155,132.674,41.725,132.674z M66.819,132.391c-0.586,0-1.062,0.475-1.062,1.062v23.891
		c0,0.586,0.475,1.062,1.062,1.062s1.062-0.475,1.062-1.062v-23.891C67.881,132.866,67.405,132.391,66.819,132.391z M47.999,132.603
		c-0.469,0-0.849,0.38-0.849,0.849v23.891c0,0.469,0.38,0.849,0.849,0.849s0.849-0.38,0.849-0.849v-23.891
		C48.848,132.984,48.468,132.603,47.999,132.603z M54.272,132.533c-0.508,0-0.92,0.412-0.92,0.92v23.891
		c0,0.508,0.412,0.92,0.92,0.92s0.92-0.412,0.92-0.92v-23.891C55.192,132.945,54.78,132.533,54.272,132.533z M122.662,190.695
		l1.453,0.861c1.669,0.915,3.445,0.431,4.306-1.023c0.807-1.453,0.323-3.23-1.292-4.198l-1.453-0.861
		c-0.323-0.161-0.753-0.054-0.915,0.269l-2.368,4.037C122.231,190.103,122.339,190.534,122.662,190.695z M125.676,186.873
		l0.861,0.538c0.915,0.538,1.184,1.561,0.646,2.476c-0.538,0.915-1.561,1.184-2.476,0.646l-0.861-0.538L125.676,186.873z
		 M62.269,119.358l-25.652-4.523c-0.578-0.103-1.128,0.284-1.23,0.861c-0.102,0.578,0.284,1.128,0.861,1.23l25.652,4.523
		c0.062,0.011,0.124,0.016,0.186,0.016c0.506,0,0.953-0.362,1.044-0.877C63.232,120.01,62.846,119.459,62.269,119.358z
		 M64.293,112.517l-24.477-8.909c-0.551-0.2-1.16,0.084-1.361,0.635c-0.201,0.551,0.084,1.16,0.635,1.361l24.477,8.909
		c0.12,0.044,0.242,0.064,0.363,0.064c0.434,0,0.841-0.268,0.998-0.699C65.128,113.327,64.844,112.718,64.293,112.517z
		 M188.117,132.957c-0.274,0-0.495,0.222-0.495,0.496v23.891c0,0.274,0.222,0.496,0.495,0.496c0.274,0,0.495-0.222,0.495-0.496
		v-23.891C188.613,133.179,188.391,132.957,188.117,132.957z M194.391,133.028c-0.235,0-0.425,0.19-0.425,0.425v23.891
		c0,0.235,0.19,0.425,0.425,0.425s0.425-0.19,0.425-0.425v-23.891C194.815,133.218,194.625,133.028,194.391,133.028z
		 M67.475,106.132L44.917,93.108c-0.508-0.294-1.157-0.119-1.45,0.389c-0.293,0.508-0.119,1.157,0.389,1.45l22.558,13.024
		c0.167,0.097,0.35,0.142,0.53,0.142c0.367,0,0.724-0.19,0.921-0.531C68.157,107.075,67.983,106.425,67.475,106.132z
		 M78.368,192.343c0.161,0.269,0.538,0.377,0.861,0.215c0.323-0.161,0.431-0.538,0.269-0.861l-1.507-2.584l1.884,0.969
		c0.215,0.108,0.431,0.161,0.646,0c0.215-0.161,0.323-0.323,0.323-0.592l0.108-2.153l1.507,2.584
		c0.215,0.323,0.592,0.431,0.915,0.269c0.323-0.215,0.431-0.592,0.269-0.915l-2.422-4.145c-0.215-0.323-0.592-0.431-0.915-0.269
		l-0.108,0.054c-0.215,0.161-0.323,0.323-0.323,0.592l-0.108,3.068l-2.691-1.453c-0.215-0.108-0.431-0.161-0.7,0l-0.108,0.054
		c-0.323,0.215-0.431,0.592-0.269,0.915L78.368,192.343z M69.814,68.988c-0.293-0.508-0.943-0.683-1.45-0.389
		c-0.508,0.293-0.682,0.943-0.389,1.45l13.024,22.558c0.197,0.34,0.553,0.531,0.921,0.531c0.18,0,0.363-0.046,0.53-0.142
		c0.508-0.293,0.682-0.943,0.389-1.45L69.814,68.988z M80.471,64.223c-0.201-0.551-0.81-0.834-1.361-0.635
		c-0.551,0.201-0.835,0.81-0.635,1.361l8.909,24.477c0.157,0.431,0.564,0.699,0.998,0.699c0.121,0,0.243-0.021,0.363-0.064
		c0.551-0.201,0.835-0.81,0.635-1.361L80.471,64.223z M51.763,83.653c-0.449-0.377-1.119-0.318-1.496,0.131
		c-0.377,0.45-0.318,1.119,0.131,1.496l19.954,16.743c0.199,0.167,0.441,0.248,0.682,0.248c0.303,0,0.604-0.129,0.814-0.379
		c0.377-0.45,0.318-1.119-0.131-1.496L51.763,83.653z M114.186,60.52c-0.578-0.103-1.128,0.284-1.23,0.861l-2.691,15.259
		c-0.102,0.578,0.284,1.128,0.861,1.23c0.062,0.011,0.124,0.016,0.186,0.016c0.506,0,0.953-0.362,1.044-0.877l2.691-15.259
		C115.149,61.172,114.764,60.621,114.186,60.52z M60.147,75.531c-0.377-0.449-1.047-0.508-1.496-0.131
		c-0.449,0.377-0.508,1.046-0.131,1.496L75.264,96.85c0.21,0.25,0.511,0.379,0.814,0.379c0.241,0,0.483-0.081,0.682-0.248
		c0.449-0.377,0.508-1.046,0.131-1.496L60.147,75.531z M125.639,63.588c-0.55-0.2-1.16,0.084-1.361,0.635l-8.909,24.477
		c-0.201,0.551,0.084,1.16,0.635,1.361c0.12,0.044,0.242,0.064,0.363,0.064c0.434,0,0.841-0.268,0.998-0.699l8.909-24.477
		C126.474,64.398,126.19,63.789,125.639,63.588z M144.203,132.462c-0.547,0-0.991,0.443-0.991,0.991v23.891
		c0,0.547,0.444,0.991,0.991,0.991s0.991-0.443,0.991-0.991v-23.891C145.195,132.905,144.751,132.462,144.203,132.462z
		 M137.93,132.391c-0.586,0-1.062,0.475-1.062,1.062v23.891c0,0.586,0.475,1.062,1.062,1.062c0.586,0,1.062-0.475,1.062-1.062
		v-23.891C138.992,132.866,138.516,132.391,137.93,132.391z M181.844,132.887c-0.313,0-0.566,0.253-0.566,0.566v23.891
		c0,0.313,0.254,0.566,0.566,0.566c0.313,0,0.566-0.253,0.566-0.566v-23.891C182.41,133.14,182.157,132.887,181.844,132.887z
		 M58.371,193.217c0.684,0,1.238-0.554,1.238-1.238c0-0.684-0.554-1.238-1.238-1.238c-0.684,0-1.238,0.554-1.238,1.238
		C57.133,192.663,57.688,193.217,58.371,193.217z M150.477,132.533c-0.508,0-0.92,0.412-0.92,0.92v23.891
		c0,0.508,0.412,0.92,0.92,0.92c0.508,0,0.92-0.412,0.92-0.92v-23.891C151.397,132.945,150.985,132.533,150.477,132.533z
		 M61.332,194.832l40.854,23.576c0,0,0,0,0.054,0c0.054,0,0.054,0.054,0.108,0.054c0,0,0,0,0.054,0c0,0,0,0,0.054,0h0.054
		c0.054,0,0.161,0.054,0.215,0.054c0.108,0,0.161,0,0.215-0.054h0.108c0.054,0,0.054-0.054,0.108-0.054c0,0,0,0,0.054,0
		l40.208-23.199c0.377-0.215,0.538-0.861,0.269-1.346c-0.269-0.484-0.915-0.646-1.346-0.377l-35.687,20.615l15.179-19.377
		c0.323-0.431,0.269-1.077-0.161-1.4c-0.431-0.323-1.077-0.269-1.399,0.161l-16.578,21.154V193.97c0-0.538-0.431-1.023-1.023-1.023
		s-1.023,0.431-1.023,1.023v20.669l-16.578-21.154c-0.323-0.431-0.969-0.484-1.399-0.161c-0.431,0.323-0.484,0.969-0.161,1.4
		l15.179,19.377l-36.387-20.992c-0.484-0.269-1.077-0.108-1.346,0.377S60.848,194.562,61.332,194.832z M156.75,132.603
		c-0.469,0-0.849,0.38-0.849,0.849v23.891c0,0.469,0.38,0.849,0.849,0.849s0.849-0.38,0.849-0.849v-23.891
		C157.6,132.984,157.219,132.603,156.75,132.603z M175.57,132.816c-0.352,0-0.637,0.285-0.637,0.637v23.891
		c0,0.352,0.285,0.637,0.637,0.637c0.352,0,0.637-0.285,0.637-0.637v-23.891C176.207,133.101,175.922,132.816,175.57,132.816z
		 M169.297,132.745c-0.391,0-0.708,0.317-0.708,0.708v23.891c0,0.391,0.317,0.708,0.708,0.708s0.708-0.317,0.708-0.708v-23.891
		C170.005,133.062,169.688,132.745,169.297,132.745z M163.024,132.674c-0.43,0-0.779,0.348-0.779,0.778v23.891
		c0,0.43,0.349,0.778,0.779,0.778c0.43,0,0.779-0.348,0.779-0.778v-23.891C163.802,133.023,163.454,132.674,163.024,132.674z"/>
</g>
</svg>
